<svg width="28" height="28" viewBox="0 0 28 28" fill="none" xmlns="http://www.w3.org/2000/svg">
<rect width="28" height="28" rx="3.36" fill="#9787F4"/>
<path fill-rule="evenodd" clip-rule="evenodd" d="M20.3027 5.65576C21.4534 5.65576 22.3863 6.54889 22.3863 7.65063V15.8668C22.3863 16.1096 22.1808 16.3064 21.9272 16.3064H18.9581C18.5692 16.3077 18.2544 16.6099 18.2544 16.9826V18.1659C18.2544 18.4087 18.0489 18.6055 17.7953 18.6055H11.5798C11.1897 18.6055 10.8735 18.9083 10.8735 19.2817V23.1362C10.8735 23.379 10.668 23.5758 10.4144 23.5758H7.1654C6.91184 23.5758 6.7063 23.379 6.7063 23.1362V8.59735C6.7063 8.35459 6.91184 8.1578 7.1654 8.1578H9.91999C10.3101 8.1578 10.6263 7.85504 10.6263 7.48157V6.09531C10.6263 5.85255 10.8318 5.65576 11.0854 5.65576H20.3027ZM11.5798 8.4621C11.1897 8.4621 10.8735 8.76486 10.8735 9.13833V14.9539L10.8737 14.971C10.8831 15.3308 11.1859 15.6208 11.5616 15.6299L11.5798 15.6301H17.5128C17.9029 15.6301 18.2191 15.3273 18.2191 14.9539V9.13833C18.2191 8.76486 17.9029 8.4621 17.5128 8.4621H11.5798Z" fill="black"/>
<path fill-rule="evenodd" clip-rule="evenodd" d="M19.1828 5.65576C20.3336 5.65576 21.2664 6.54889 21.2664 7.65063V15.8668C21.2664 16.1096 21.0609 16.3064 20.8073 16.3064H17.8382C17.4493 16.3077 17.1345 16.6099 17.1345 16.9826V18.1659C17.1345 18.4087 16.929 18.6055 16.6754 18.6055H10.4599C10.0699 18.6055 9.75363 18.9083 9.75363 19.2817V23.1362C9.75363 23.379 9.54809 23.5758 9.29453 23.5758H6.04552C5.79197 23.5758 5.58643 23.379 5.58643 23.1362V8.59735C5.58643 8.35459 5.79197 8.1578 6.04552 8.1578H8.80012C9.1902 8.1578 9.50643 7.85504 9.50643 7.48157V6.09531C9.50643 5.85255 9.71197 5.65576 9.96552 5.65576H19.1828ZM10.4599 8.4621C10.0699 8.4621 9.75363 8.76486 9.75363 9.13833V14.9539L9.75384 14.971C9.7632 15.3308 10.066 15.6208 10.4417 15.6299L10.4599 15.6301H16.3929C16.783 15.6301 17.0992 15.3273 17.0992 14.9539V9.13833C17.0992 8.76486 16.783 8.4621 16.3929 8.4621H10.4599Z" fill="#F6F4FC"/>
</svg>
